<svg id="Layer_1" data-name="Layer 1" xmlns="http://www.w3.org/2000/svg" viewBox="0 0 512 512"><defs><style>.cls-1{fill:#91A1BC;}</style></defs><title>arrow-down-outline</title><path class="cls-1" d="M256,0C114.84,0,0,114.84,0,256S114.84,512,256,512,512,397.16,512,256,397.16,0,256,0Zm0,469.33c-117.64,0-213.33-95.7-213.33-213.33S138.36,42.67,256,42.67,469.33,138.37,469.33,256,373.64,469.33,256,469.33Z"/><path class="cls-1" d="M304.92,262.25l-27.58,27.58V128a21.33,21.33,0,1,0-42.67,0V289.83l-27.58-27.58a21.33,21.33,0,1,0-30.17,30.17l64,64a21.33,21.33,0,0,0,30.17,0l64-64a21.33,21.33,0,1,0-30.17-30.17Z"/></svg>