<svg id="Layer_1" data-name="Layer 1" xmlns="http://www.w3.org/2000/svg" viewBox="0 0 512 512"><defs><style>.cls-1{fill:#91A1BC;}</style></defs><title>arrow-up-outline</title><path class="cls-1" d="M256,0C114.84,0,0,114.84,0,256S114.84,512,256,512,512,397.16,512,256,397.16,0,256,0Zm0,469.33c-117.63,0-213.33-95.7-213.33-213.33S138.37,42.67,256,42.67,469.33,138.37,469.33,256,373.63,469.33,256,469.33Z"/><path class="cls-1" d="M271.08,155.58a21.33,21.33,0,0,0-30.17,0l-64,64a21.33,21.33,0,0,0,30.17,30.17l27.58-27.58V384a21.33,21.33,0,1,0,42.67,0V222.17l27.58,27.58a21.33,21.33,0,0,0,30.17-30.17Z"/></svg>